<svg data-v-0dd9719b="" version="1.0" xmlns="http://www.w3.org/2000/svg" xmlns:xlink="http://www.w3.org/1999/xlink" preserveAspectRatio="xMidYMid meet" color-interpolation-filters="sRGB" style="margin: auto;" viewBox="68.38 86.77 203.25 74.48"><g data-v-0dd9719b="" fill="#22c55e]" class="linesvg" transform="translate(70.390380859375,88.76772689819336)"><g class="tp-name" transform="translate(0,0)"><g><rect fill-opacity="0" stroke="#22c55e" stroke-width="2" x="0" y="0" height="51.73974609375" width="51.73974609375"></rect> <g fill="#22c55e" transform="translate(12.374873161315918,3)"><g transform="scale(1)"><path d="M7.07 0Q7.54 0 7.87-0.33L7.87-0.33Q8.20-0.66 8.20-1.10L8.20-1.10L8.20-14.90L30.73-14.90L30.73-1.10Q30.73-0.66 31.05-0.33L31.05-0.33Q31.38 0 31.82 0L31.82 0Q32.30 0 32.63-0.33L32.63-0.33Q32.96-0.66 32.96-1.10L32.96-1.10L32.96-44.64Q32.96-45.12 32.63-45.45L32.63-45.45Q32.30-45.74 31.82-45.74L31.82-45.74Q31.38-45.74 31.05-45.45L31.05-45.45Q30.73-45.12 30.73-44.64L30.73-44.64L30.73-17.10L8.20-17.10L8.20-44.64Q8.20-45.12 7.87-45.45L7.87-45.45Q7.54-45.74 7.07-45.74L7.07-45.74Q6.63-45.74 6.30-45.45L6.30-45.45Q5.97-45.12 5.97-44.64L5.97-44.64L5.97-1.10Q5.97-0.66 6.30-0.33L6.30-0.33Q6.63 0 7.07 0L7.07 0Z" transform="translate(-5.96923828125, 45.73974609375)"></path></g></g></g><g transform="translate(73.73974609375,0)"><rect fill-opacity="0" stroke="#22c55e" stroke-width="2" x="0" y="0" height="51.73974609375" width="51.73974609375"></rect> <g fill="#22c55e" transform="translate(12.374873161315918,3)"><g transform="scale(1)"><path d="M7.07 0Q7.54 0 7.87-0.33L7.87-0.33Q8.20-0.66 8.20-1.10L8.20-1.10L8.20-14.90L30.73-14.90L30.73-1.10Q30.73-0.66 31.05-0.33L31.05-0.33Q31.38 0 31.82 0L31.82 0Q32.30 0 32.63-0.33L32.63-0.33Q32.96-0.66 32.96-1.10L32.96-1.10L32.96-44.64Q32.96-45.12 32.63-45.45L32.63-45.45Q32.30-45.74 31.82-45.74L31.82-45.74Q31.38-45.74 31.05-45.45L31.05-45.45Q30.73-45.12 30.73-44.64L30.73-44.64L30.73-17.10L8.20-17.10L8.20-44.64Q8.20-45.12 7.87-45.45L7.87-45.45Q7.54-45.74 7.07-45.74L7.07-45.74Q6.63-45.74 6.30-45.45L6.30-45.45Q5.97-45.12 5.97-44.64L5.97-44.64L5.97-1.10Q5.97-0.66 6.30-0.33L6.30-0.33Q6.63 0 7.07 0L7.07 0Z" transform="translate(-5.96923828125, 45.73974609375)"></path></g></g></g><g transform="translate(147.4794921875,0)"><rect fill-opacity="0" stroke="#22c55e" stroke-width="2" x="0" y="0" height="51.73974609375" width="51.73974609375"></rect> <g fill="#22c55e" transform="translate(12.374873161315918,3)"><g transform="scale(1)"><path d="M7.07 0Q7.54 0 7.87-0.33L7.87-0.33Q8.20-0.66 8.20-1.10L8.20-1.10L8.20-14.90L30.73-14.90L30.73-1.10Q30.73-0.66 31.05-0.33L31.05-0.33Q31.38 0 31.82 0L31.82 0Q32.30 0 32.63-0.33L32.63-0.33Q32.96-0.66 32.96-1.10L32.96-1.10L32.96-44.64Q32.96-45.12 32.63-45.45L32.63-45.45Q32.30-45.74 31.82-45.74L31.82-45.74Q31.38-45.74 31.05-45.45L31.05-45.45Q30.73-45.12 30.73-44.64L30.73-44.64L30.73-17.10L8.20-17.10L8.20-44.64Q8.20-45.12 7.87-45.45L7.87-45.45Q7.54-45.74 7.07-45.74L7.07-45.74Q6.63-45.74 6.30-45.45L6.30-45.45Q5.97-45.12 5.97-44.64L5.97-44.64L5.97-1.10Q5.97-0.66 6.30-0.33L6.30-0.33Q6.63 0 7.07 0L7.07 0Z" transform="translate(-5.96923828125, 45.73974609375)"></path></g></g></g></g> <g data-gra="path-slogan" fill-rule="" class="tp-slogan" fill="#22c55e" transform="translate(5,64.73974609375)"><rect x="0" height="1" y="3.364000082015991" width="25.845619201660156"></rect> <rect height="1" y="3.364000082015991" width="25.845619201660156" x="163.37361907958984"></rect> <g transform="translate(28.845619201660156,0)"><g transform="scale(0.7999999999999998)"><path d="M6.10-8.38L7.78-8.38L7.78 0L6.10 0L6.10-3.56L2.51-3.56L2.51 0L0.83 0L0.83-8.38L2.51-8.38L2.51-4.93L6.10-4.93L6.10-8.38ZM17.29-7.02L14.11-7.02L14.11-4.92L16.93-4.92L16.93-3.59L14.11-3.59L14.11-1.37L17.29-1.37L17.29 0L12.43 0L12.43-8.39L17.29-8.39L17.29-7.02ZM27.50 0L26.95-1.60L23.62-1.60L23.06 0L21.30 0L24.31-8.39L26.27-8.39L29.28 0L27.50 0ZM24.07-2.94L26.50-2.94L25.28-6.44L24.07-2.94ZM36.34-8.38Q37.66-8.38 38.66-7.86Q39.66-7.34 40.21-6.39Q40.75-5.44 40.75-4.18L40.75-4.18Q40.75-2.92 40.21-1.97Q39.66-1.03 38.66-0.52Q37.66 0 36.34 0L36.34 0L33.41 0L33.41-8.38L36.34-8.38ZM36.28-1.43Q37.60-1.43 38.32-2.15Q39.04-2.87 39.04-4.18L39.04-4.18Q39.04-5.48 38.32-6.22Q37.60-6.96 36.28-6.96L36.28-6.96L35.09-6.96L35.09-1.43L36.28-1.43ZM50.28-8.38L51.96-8.38L51.96 0L50.28 0L50.28-3.56L46.69-3.56L46.69 0L45.01 0L45.01-8.38L46.69-8.38L46.69-4.93L50.28-4.93L50.28-8.38ZM56.59-8.38L58.27-8.38L58.27-3.19Q58.27-2.34 58.72-1.89Q59.16-1.44 59.96-1.44L59.96-1.44Q60.78-1.44 61.22-1.89Q61.67-2.34 61.67-3.19L61.67-3.19L61.67-8.38L63.36-8.38L63.36-3.20Q63.36-2.14 62.90-1.40Q62.44-0.66 61.66-0.29Q60.89 0.08 59.94 0.08L59.94 0.08Q59.00 0.08 58.24-0.29Q57.48-0.66 57.04-1.40Q56.59-2.14 56.59-3.20L56.59-3.20L56.59-8.38ZM75.14-8.39L75.14 0L73.46 0L69.66-5.75L69.66 0L67.98 0L67.98-8.39L69.66-8.39L73.46-2.63L73.46-8.39L75.14-8.39ZM79.36-8.38L85.50-8.38L85.50-7.02L83.27-7.02L83.27 0L81.59 0L81.59-7.02L79.36-7.02L79.36-8.38ZM94.58-7.02L91.40-7.02L91.40-4.92L94.22-4.92L94.22-3.59L91.40-3.59L91.40-1.37L94.58-1.37L94.58 0L89.72 0L89.72-8.39L94.58-8.39L94.58-7.02ZM105.37 0L103.43 0L101.58-3.26L100.79-3.26L100.79 0L99.11 0L99.11-8.38L102.25-8.38Q103.22-8.38 103.91-8.03Q104.59-7.69 104.93-7.11Q105.28-6.53 105.28-5.81L105.28-5.81Q105.28-4.98 104.80-4.31Q104.32-3.65 103.37-3.40L103.37-3.40L105.37 0ZM100.79-6.98L100.79-4.52L102.19-4.52Q102.88-4.52 103.21-4.85Q103.55-5.18 103.55-5.77L103.55-5.77Q103.55-6.35 103.21-6.67Q102.88-6.98 102.19-6.98L102.19-6.98L100.79-6.98ZM109.42-9.58L110.86-9.58L110.71-7.03L109.57-7.03L109.42-9.58ZM118.03 0.08Q117.16 0.08 116.45-0.22Q115.75-0.52 115.34-1.08Q114.94-1.64 114.92-2.41L114.92-2.41L116.72-2.41Q116.76-1.90 117.09-1.60Q117.42-1.30 118.00-1.30L118.00-1.30Q118.58-1.30 118.92-1.58Q119.26-1.86 119.26-2.32L119.26-2.32Q119.26-2.69 119.03-2.93Q118.80-3.17 118.46-3.31Q118.12-3.44 117.52-3.61L117.52-3.61Q116.70-3.85 116.19-4.09Q115.68-4.32 115.31-4.79Q114.95-5.27 114.95-6.06L114.95-6.06Q114.95-6.80 115.32-7.36Q115.69-7.91 116.36-8.20Q117.04-8.50 117.90-8.50L117.90-8.50Q119.20-8.50 120.01-7.87Q120.82-7.24 120.90-6.11L120.90-6.11L119.05-6.11Q119.03-6.54 118.69-6.82Q118.34-7.10 117.78-7.10L117.78-7.10Q117.29-7.10 116.99-6.85Q116.70-6.60 116.70-6.12L116.70-6.12Q116.70-5.78 116.92-5.56Q117.14-5.34 117.47-5.20Q117.80-5.06 118.40-4.88L118.40-4.88Q119.22-4.64 119.74-4.40Q120.25-4.16 120.62-3.68Q121.00-3.20 121.00-2.42L121.00-2.42Q121.00-1.75 120.65-1.18Q120.30-0.60 119.63-0.26Q118.96 0.08 118.03 0.08L118.03 0.08ZM136.57-8.38L138.25-8.38L138.25 0L136.57 0L136.57-3.56L132.98-3.56L132.98 0L131.30 0L131.30-8.38L132.98-8.38L132.98-4.93L136.57-4.93L136.57-8.38ZM147.77-7.02L144.59-7.02L144.59-4.92L147.41-4.92L147.41-3.59L144.59-3.59L144.59-1.37L147.77-1.37L147.77 0L142.91 0L142.91-8.39L147.77-8.39L147.77-7.02ZM153.97-8.38L153.97-1.33L156.73-1.33L156.73 0L152.29 0L152.29-8.38L153.97-8.38ZM162.48-8.38L162.48-1.33L165.24-1.33L165.24 0L160.80 0L160.80-8.38L162.48-8.38Z" transform="translate(-0.8280000000000001, 9.576)"></path></g></g></g> <!----></g></svg>